<?xml version="1.0" encoding="UTF-8"?><svg id="Calque_1" xmlns="http://www.w3.org/2000/svg" viewBox="0 0 516.87 416.18"><rect x=".5" y="165.33" width="24.79" height="61.14" rx="12.22" ry="12.22" style="stroke:#FFF; stroke-miterlimit:10;"/><rect x="45.39" y="135.25" width="24.79" height="111.26" rx="12.22" ry="12.22" style="stroke:#FFF; stroke-miterlimit:10;"/><rect x="90.28" y="107.53" width="24.79" height="161.66" rx="12.22" ry="12.22" style="stroke:#FFF; stroke-miterlimit:10;"/><rect x="135.17" y="142.79" width="24.79" height="111.26" rx="12.22" ry="12.22" style="stroke:#FFF; stroke-miterlimit:10;"/><rect x="180.06" y="162.82" width="24.79" height="61.14" rx="12.22" ry="12.22" style="stroke:#FFF; stroke-miterlimit:10;"/><line x1="216.31" y1="143.93" x2="274.69" y2="88.85" style="stroke:#FFF; stroke-linecap:round; stroke-miterlimit:10; stroke-width:8px;"/><line x1="247.26" y1="88.8" x2="274.05" y2="88.8" style="stroke:#FFF; stroke-miterlimit:10; stroke-width:8px;"/><line x1="274.86" y1="115.96" x2="274.86" y2="89.16" style="stroke:#FFF; stroke-miterlimit:10; stroke-width:8px;"/><line x1="275.56" y1="265.36" x2="275.56" y2="292.15" style="stroke:#FFF; stroke-miterlimit:10; stroke-width:8px;"/><line x1="248.4" y1="292.96" x2="275.2" y2="292.96" style="stroke:#FFF; stroke-miterlimit:10; stroke-width:8px;"/><line x1="217.98" y1="237.76" x2="276.37" y2="292.84" style="stroke:#FFF; stroke-linecap:round; stroke-miterlimit:10; stroke-width:8px;"/><rect x="312.02" y="49.81" width="24.79" height="61.14" rx="12.22" ry="12.22" style="stroke:#FFF; stroke-miterlimit:10;"/><rect x="356.91" y="42.72" width="24.79" height="75.32" rx="12.22" ry="12.22" style="stroke:#FFF; stroke-miterlimit:10;"/><rect x="401.8" y="17.17" width="24.79" height="126.41" rx="12.22" ry="12.22" style="stroke:#FFF; stroke-miterlimit:10;"/><rect x="446.69" y=".5" width="24.79" height="159.75" rx="12.22" ry="12.22" style="stroke:#FFF; stroke-miterlimit:10;"/><rect x="491.58" y="49.81" width="24.79" height="61.14" rx="12.22" ry="12.22" style="stroke:#FFF; stroke-miterlimit:10;"/><rect x="312.02" y="292.19" width="24.79" height="61.14" rx="12.22" ry="12.22" style="stroke:#FFF; stroke-miterlimit:10;"/><rect x="356.91" y="250.7" width="24.79" height="144.12" rx="12.22" ry="12.22" style="stroke:#FFF; stroke-miterlimit:10;"/><rect x="401.8" y="229.84" width="24.79" height="185.85" rx="12.22" ry="12.22" style="stroke:#FFF; stroke-miterlimit:10;"/><rect x="446.69" y="281.51" width="24.79" height="82.5" rx="12.22" ry="12.22" style="stroke:#FFF; stroke-miterlimit:10;"/><rect x="491.58" y="292.19" width="24.79" height="61.14" rx="12.22" ry="12.22" style="stroke:#FFF; stroke-miterlimit:10;"/></svg>