<?xml version="1.0" encoding="UTF-8"?><svg id="Calque_1" xmlns="http://www.w3.org/2000/svg" viewBox="0 0 391.03 391.24"><path d="M56.16,0c.81,.14,1.63,.25,2.44,.43,6.57,1.47,11.13,6.98,11.14,13.7,.05,34.58,.07,69.16,.05,103.73,0,3.62,.02,7.29-.61,10.83-.91,5.15-3.94,8.95-9.11,10.47-4.95,1.46-9.64,.74-13.52-2.9-3.36-3.14-4.61-7.24-4.62-11.73-.03-17.08,0-34.16-.01-51.23-.01-15.26-.05-30.53-.06-45.79,0-4.42,.04-8.84,.07-13.26,.04-7.55,5.27-13.31,12.75-14.05,.31-.03,.62-.14,.93-.21,.19,0,.37,0,.56,0Z"/><path d="M181.3,167.84c.03-.6,.07-1.01,.07-1.42,0-4.24-.03-8.47,.03-12.71,.01-.99-.32-1.34-1.25-1.58-8.34-2.13-16.3-5.23-23.39-10.19-17-11.91-27.73-27.86-30.31-48.66-.87-6.98-.6-14.11-.73-21.17-.04-1.98,.11-4.03,.61-5.93,1.75-6.56,7.57-10.54,14.39-10.06,6.47,.45,11.85,5.4,12.6,11.95,.39,3.36,.19,6.78,.34,10.17,.19,4.13,.2,8.29,.77,12.38,1.86,13.36,9,23.27,20.63,29.83,24.65,13.92,55.73-.29,61.45-28.02,.63-3.07,.78-6.27,.89-9.42,.15-4.46-.05-8.94,.09-13.4,.21-6.54,4.62-11.83,10.82-13.23,7.92-1.78,15.76,3.48,16.69,11.57,.51,4.41,.36,8.92,.35,13.38-.02,8.26-.72,16.48-3.44,24.33-6.09,17.59-17.15,31-33.77,39.67-5.5,2.87-11.26,5.07-17.22,6.77-.94,.27-1.25,.64-1.24,1.61,.05,4.28,.02,8.56,.03,12.85,0,.37,.04,.73,.08,1.27,1.24,0,2.43-.02,3.62,0,4.04,.09,8.13-.14,12.11,.37,7.59,.99,12.16,7.11,11.51,14.72-.38,4.49,.98,8.29,4.81,10.91,1.53,1.04,3.15,1.97,4.81,2.8,3.12,1.56,6.19,1.3,9.18-.47,1.32-.78,2.64-1.58,4.02-2.23,6.25-2.95,11.99-1.65,16.34,3.72,1.05,1.29,1.99,2.7,2.82,4.15,8.39,14.59,16.77,29.18,25.07,43.82,1.18,2.08,2.2,4.34,2.77,6.65,1.34,5.43-.51,9.89-4.87,13.3-1.09,.86-2.34,1.51-3.51,2.27-1.17,.76-2.4,1.44-3.47,2.32-2.41,1.96-3.26,4.54-2.71,7.61,.11,.63,.16,1.31,.05,1.93-.79,4.51,.71,8.05,4.48,10.62,.8,.55,1.65,1.04,2.52,1.49,7.62,3.96,10.13,11.13,6.21,18.77-3.03,5.91-6.45,11.62-9.74,17.4-5.76,10.1-11.55,20.18-17.35,30.25-.55,.96-1.17,1.9-1.85,2.79-4.65,6.08-11.45,7.39-18.05,3.5-1.28-.75-2.54-1.57-3.87-2.21-3.7-1.79-7.08-1.22-10.24,1.38-1.13,.93-2.45,1.68-3.8,2.26-2.66,1.15-3.49,2.47-3.52,5.36-.04,3.19,.08,6.46-.57,9.54-1.32,6.23-6.8,10.38-13.17,10.39-18.57,.03-37.14,.04-55.71,0-8.25-.02-14.29-6.21-13.59-14.36,.82-9.64-6.82-14.03-12.91-15.38-2.4-.53-4.48,.74-6.58,1.79-2.39,1.19-4.84,2.41-7.41,3.09-4.1,1.08-7.77-.26-10.7-3.24-1.52-1.54-2.93-3.28-4.01-5.15-8.71-15.1-17.39-30.21-25.93-45.41-1.29-2.3-2.16-4.98-2.58-7.58-.8-4.94,1.51-8.73,5.39-11.64,.96-.72,1.97-1.44,3.05-1.95,4.48-2.09,6.44-5.71,6.45-10.5,0-1.67-.03-3.36-.29-5-.67-4.29-3.46-6.93-7.14-8.88-1.3-.69-2.62-1.46-3.7-2.44-4.34-3.95-5.33-10.24-2.29-16.02,3.12-5.92,6.52-11.69,9.84-17.5,5.86-10.25,11.76-20.48,17.66-30.71,.53-.92,1.12-1.83,1.78-2.66,4.53-5.73,11.46-6.96,17.67-3.11,2.47,1.53,4.98,3.11,8,2.86,5.04-.41,9.2-2.73,12.06-6.86,1.01-1.45,1.21-3.56,1.48-5.41,.32-2.2,.07-4.49,.48-6.66,1.1-5.82,5.23-9.49,11.32-10.32,1.47-.2,2.96-.29,4.45-.3,3.67-.04,7.34-.01,11.19-.01Zm15.16,83.75c-15.39-.03-28.02,12.53-28.06,27.89-.04,15.19,12.6,27.96,27.7,27.99,15.37,.03,28.15-12.5,28.19-27.64,.04-15.54-12.46-28.22-27.83-28.25Z"/><path d="M167.6,56.05c0-9.21-.02-18.43,0-27.64,.04-13.07,8.5-24.13,20.9-27.39,15.71-4.12,31.76,6.23,34.37,22.22,.35,2.15,.53,4.34,.53,6.52,.04,17.68,.06,35.36,0,53.04-.03,9.91-3.68,18.17-11.87,24.02-16.39,11.7-39.5,2.35-43.31-17.47-.4-2.09-.59-4.24-.6-6.37-.07-8.98-.03-17.96-.03-26.94Z"/><path d="M321.21,70.38c0-18.06,0-36.12,0-54.18,0-4.41,.92-8.54,4.02-11.85,3.77-4.04,8.56-4.96,13.71-3.65,5.27,1.34,8.3,5.08,9.59,10.24,.39,1.56,.56,3.22,.56,4.83,.03,33.65,.02,67.3,.02,100.95,0,3.12,.07,6.24-.02,9.35-.22,7.49-6.21,13.61-13.44,13.82-7.5,.21-13.98-5.74-14.41-13.24-.04-.65-.04-1.3-.04-1.95,0-18.11,0-36.21,0-54.32Z"/><path d="M83.81,70.1c0-9.16-.02-18.33,0-27.49,.02-6.4,3.61-11.74,9.13-13.71,8.47-3.02,17.37,2.46,18.47,11.42,.24,1.93,.27,3.9,.27,5.85,.02,15.77,.05,31.55-.02,47.32-.01,2.86-.1,5.82-.84,8.55-1.74,6.37-7.54,10.3-13.84,9.86-6.69-.47-11.88-5.05-12.85-11.68-.42-2.83-.36-5.75-.38-8.62-.05-7.16-.02-14.33-.02-21.5,.02,0,.05,0,.07,0Z"/><path d="M307.21,69.97c0,8.93,.02,17.87,0,26.8-.01,4.14-1.13,7.94-4.07,10.97-3.9,4.02-8.72,5.06-13.98,3.53-5.5-1.61-8.44-5.65-9.51-11.14-.24-1.22-.32-2.49-.32-3.74-.02-17.63-.01-35.27-.01-52.9,0-5.32,1.63-9.9,6.16-13.05,6.92-4.81,19.25-2.56,21.44,9.55,.22,1.23,.28,2.5,.28,3.75,.02,8.75,.01,17.49,.01,26.24Z"/><path d="M363.14,69.89c0-4.7-.03-9.39,0-14.09,.06-7.22,5.61-13.15,12.71-13.64,7.5-.52,13.82,4.41,14.89,11.7,.23,1.6,.27,3.24,.28,4.86,.02,8.32,0,16.65-.03,24.97-.03,6.7-4.35,12.29-10.63,13.82-8.75,2.12-17.13-4.37-17.22-13.39-.05-4.74,0-9.48,0-14.23Z"/><path d="M.02,70.03c0-4.7-.03-9.4,0-14.1,.05-7.51,5.66-13.4,13.13-13.82,7.41-.42,13.68,4.9,14.52,12.35,.17,1.47,.24,2.97,.24,4.45,0,8.24,0,16.47-.05,24.71-.05,7.43-5.11,13.25-12.24,14.16C7.43,98.83,.14,92.54,.03,84.27c-.06-4.75-.01-9.49-.01-14.24Z"/></svg>