<?xml version="1.0" encoding="UTF-8"?><svg id="Calque_1" xmlns="http://www.w3.org/2000/svg" viewBox="0 0 421.01 420.68"><path d="M215.62,420.68c-2.18-.16-4.35-.35-6.53-.47-7.98-.46-15.87-1.53-23.71-3.05-17.36-3.36-33.92-9.09-49.65-17.15-16.75-8.58-31.89-19.42-45.42-32.5-15.45-14.93-28.01-31.99-37.69-51.16-7.43-14.73-12.82-30.19-16.18-46.36-1.72-8.29-2.91-16.66-3.51-25.1-.61-8.49-.67-16.99-.12-25.5,.48-7.45,1.33-14.85,2.66-22.2,.81-4.45,4.51-7.21,8.78-6.49,4.18,.7,6.85,4.75,6.04,9.13-1.48,8.06-2.3,16.18-2.66,24.37-.38,8.52-.08,17.02,.83,25.48,2.7,24.96,10.36,48.31,23.11,69.97,7.13,12.1,15.57,23.2,25.4,33.24,23.21,23.69,50.87,39.65,83.07,47.68,11.06,2.76,22.29,4.34,33.69,4.84,30.28,1.33,58.99-4.73,86.09-18.29,15.75-7.89,29.95-18,42.62-30.24,19.45-18.79,33.82-40.87,43.08-66.27,4.07-11.15,6.9-22.61,8.6-34.36,1.2-8.23,1.82-16.51,1.83-24.82,.02-8.51-.6-16.98-1.82-25.42-1.88-13.03-5.19-25.68-9.91-37.96-.14-.36-.31-.72-.54-1.25-1.56,3.03-3.03,5.88-4.5,8.74-.91,1.77-1.82,3.55-2.72,5.33-2.46,4.88-7.51,6.09-11.91,2.85-.12-.08-.25-.14-.48-.27,.78,3.04,1.58,5.95,2.27,8.89,1.84,7.9,3.22,15.89,3.46,24,.21,7.02,.36,14.07-.08,21.07-.89,14.08-4.01,27.74-9.01,40.95-6.96,18.41-17.13,34.83-30.62,49.16-19.58,20.81-43.19,34.88-70.82,42.2-9.24,2.45-18.64,3.92-28.18,4.49-7.79,.47-15.57,.42-23.33-.32-18.53-1.76-36.22-6.62-52.75-15.2-39.52-20.52-65.2-52.34-77.02-95.28-2.45-8.9-3.83-18-4.38-27.23-2.32-38.5,8.45-72.9,32.37-103.13,10.79-13.64,23.76-24.86,38.62-33.9,.87-.53,1.06-1.1,1.06-2-.02-23.39-.01-46.77-.02-70.16,0-3.1,.78-5.86,3.38-7.81,2.78-2.07,5.83-2.39,8.92-.89,3.1,1.5,4.74,4.09,4.74,7.58,.01,20.75,0,41.49,0,62.24,0,.47,0,.94,0,1.6,.68-.28,1.21-.52,1.75-.71,5.56-1.94,11.12-3.92,16.71-5.78,.95-.32,.97-.82,.97-1.57,0-24.19,0-48.37,0-72.56,0-4.86,2.83-8.21,7.56-8.97,4.33-.7,8.98,2.9,9.39,7.27,.07,.71,.08,1.44,.08,2.15,0,22.67,0,45.33,0,68,0,.51,0,1.02,0,1.49,6.51-.55,12.89-1.1,19.38-1.65v-1.35c0-11.67-.03-23.35,.02-35.02,.01-3.48,1.58-6.17,4.74-7.73,3.1-1.53,6.14-1.22,8.91,.83,2.18,1.61,3.33,3.83,3.34,6.58,0,11.99,0,23.99,0,35.98,0,.47,0,.95,0,1.48,28.86,2.89,54.77,13.04,77.56,30.86,22.77,17.8,38.91,40.45,48.69,67.52,4.88-9.52,9.75-19.06,14.66-28.57,2.14-4.15,7.18-5.9,11.38-3.84,9.78,4.78,19.53,9.62,29.25,14.52,3.62,1.82,4.95,6.38,3.11,10.02-1.8,3.56-6.2,5.13-9.83,3.41-3.42-1.62-6.8-3.34-10.43-5.14,.45,1.36,.82,2.52,1.21,3.66,3.92,11.54,6.62,23.37,8.22,35.45,1,7.52,1.5,15.09,1.59,22.68,.09,7.83-.22,15.65-1.11,23.43-4.02,35.05-16.68,66.65-38.18,94.64-17,22.13-37.92,39.64-62.64,52.57-14.91,7.8-30.61,13.48-47.07,17.03-11.02,2.38-22.16,3.8-33.44,4.16-.22,0-.45,.11-.67,.16h-12.23Zm119.51-194.56c.27-61.72-49.6-112.88-112.05-113.57-63.54-.7-114.32,50.28-114.83,112.39-.52,63.93,50.98,113.73,111.84,114.53,63.79,.84,115.24-50.94,115.04-113.34Z"/><path d="M36.45,73.15c0-21.42,0-42.84,0-64.26,0-4.1,2.27-7.3,5.96-8.46,5.52-1.73,11.05,2.35,11.05,8.18,0,43.04,0,86.09,0,129.13,0,4.73-3.7,8.5-8.36,8.54-4.84,.04-8.64-3.65-8.64-8.5-.02-21.54,0-43.08,0-64.62Z"/><path d="M72.91,73.14c0-15.71,0-31.42,0-47.13,0-4.87,3.59-8.56,8.38-8.61,4.8-.05,8.62,3.67,8.62,8.54,.02,31.46,.02,62.92,0,94.38,0,4.63-3.35,8.21-7.96,8.63-4.15,.38-8.05-2.63-8.93-6.89-.12-.58-.11-1.19-.11-1.79,0-15.71,0-31.42,0-47.13Z"/><path d="M17.01,73.22c0,10.71,0,21.42,0,32.13,0,4.89-3.71,8.63-8.51,8.61C3.76,113.95,.01,110.2,0,105.41c-.01-21.5-.01-43.01,0-64.51,0-4.43,3.41-8.19,7.66-8.54,4.55-.37,8.45,2.58,9.27,7.04,.09,.51,.08,1.03,.08,1.55,0,10.75,0,21.5,0,32.25Z"/><path d="M126.33,73.14c0,10.71,.03,21.42-.02,32.13-.02,3.68-1.68,6.49-5.11,7.96-3.34,1.44-6.51,.9-9.23-1.56-1.95-1.76-2.71-4.04-2.7-6.66,.03-12.07,.01-24.14,.01-36.21,0-9.23-.01-18.47,0-27.7,.01-5.07,3.71-8.8,8.63-8.76,4.68,.04,8.4,3.85,8.41,8.65,.01,10.71,0,21.42,0,32.13Z"/><path d="M170.53,258.53c-.07-1.67,.58-3.14,1.57-4.49,1.18-1.61,2.39-3.2,3.62-4.78,.46-.59,.59-1.1,.28-1.84-1.46-3.4-2.83-6.85-4.31-10.24-.19-.44-.79-.91-1.27-1-2.03-.39-4.09-.63-6.14-.94-3.93-.58-6.39-3.42-6.4-7.41,0-3.52,0-7.03,0-10.55,0-4.31,2.51-7.15,6.77-7.7,1.82-.23,3.63-.49,5.45-.72,.82-.1,1.35-.45,1.68-1.28,1.33-3.33,2.7-6.65,4.12-9.94,.36-.85,.26-1.46-.31-2.18-1.21-1.49-2.35-3.03-3.47-4.58-2.45-3.38-2.15-6.99,.81-9.96,2.45-2.46,4.91-4.92,7.38-7.38,3.01-2.99,6.6-3.26,10.05-.74,1.52,1.11,3.02,2.23,4.49,3.4,.7,.56,1.31,.7,2.17,.32,3.33-1.43,6.69-2.8,10.05-4.17,.75-.31,1.07-.79,1.17-1.61,.25-2.22,.56-4.43,.95-6.63,.56-3.17,3.8-5.71,7.08-5.64,3.76,.08,7.51,.02,11.27,.02,3.39,0,6.44,2.5,7.03,5.85,.38,2.16,.67,4.33,.92,6.51,.09,.79,.42,1.22,1.12,1.51,3.4,1.38,6.79,2.77,10.17,4.2,.71,.3,1.24,.27,1.86-.22,1.5-1.19,3.04-2.34,4.58-3.48,3.54-2.61,7.14-2.35,10.25,.74,2.41,2.39,4.81,4.8,7.21,7.21,3.13,3.15,3.37,6.76,.69,10.34-1.15,1.53-2.35,3.03-3.43,4.61-.27,.4-.39,1.14-.22,1.58,1.36,3.45,2.84,6.85,4.21,10.29,.36,.9,.98,1.13,1.83,1.24,2.17,.28,4.36,.49,6.5,.95,3.13,.67,5.49,3.77,5.49,6.94,0,3.8,0,7.59,0,11.39,0,3.26-2.69,6.52-5.88,7.05-1.89,.31-3.79,.57-5.69,.75-1.28,.12-2.03,.59-2.52,1.88-1.19,3.17-2.55,6.28-3.9,9.38-.37,.84-.31,1.45,.28,2.17,1.19,1.45,2.3,2.97,3.41,4.48,2.57,3.49,2.3,7.08-.74,10.15-2.42,2.44-4.85,4.87-7.29,7.29-3.1,3.08-6.7,3.31-10.24,.67-1.54-1.15-3.03-2.35-4.62-3.42-.43-.29-1.23-.41-1.71-.22-3.41,1.33-6.79,2.77-10.18,4.15-.75,.3-1.1,.75-1.19,1.59-.23,2.06-.57,4.11-.89,6.15-.59,3.72-3.38,6.11-7.12,6.12-3.52,0-7.04-.13-10.55,.04-3.67,.18-7.41-1.86-7.98-7-.2-1.82-.42-3.65-.76-5.45-.09-.49-.55-1.1-.99-1.29-3.47-1.52-6.96-2.97-10.48-4.36-.44-.17-1.18,0-1.6,.3-1.55,1.06-3.01,2.24-4.52,3.36-3.68,2.72-7.2,2.47-10.42-.74-2.43-2.43-4.87-4.86-7.29-7.29-1.46-1.47-2.4-3.18-2.33-5.38Zm101.83-72.1c-.1-.04-.2-.09-.3-.13,.03-1.7-.65-3.1-1.82-4.28-2.59-2.61-5.18-5.21-7.8-7.8-2.5-2.47-5.37-2.72-8.22-.7-1.66,1.18-3.29,2.4-4.87,3.68-.95,.77-1.87,.89-2.98,.41-3.33-1.43-6.66-2.86-10.04-4.17-1.32-.51-1.84-1.37-1.97-2.68-.21-1.98-.46-3.96-.77-5.93-.5-3.17-3.61-5.39-6.33-5.24-3.59,.19-7.2,.15-10.79,.02-2.64-.1-5.9,1.78-6.36,5.45-.26,2.1-.61,4.18-.87,6.28-.12,.99-.66,1.6-1.53,1.97-3.53,1.47-7.07,2.91-10.6,4.39-.99,.41-1.81,.26-2.66-.41-1.59-1.27-3.23-2.48-4.88-3.68-2.83-2.06-5.74-1.89-8.24,.53-2.58,2.5-5.12,5.05-7.63,7.63-2.68,2.74-2.84,5.6-.55,8.7,1.14,1.54,2.29,3.08,3.48,4.58,.7,.88,.81,1.77,.39,2.78-1.45,3.49-2.84,7.01-4.39,10.46-.29,.65-1.1,1.34-1.79,1.5-1.82,.41-3.7,.56-5.56,.78-4.16,.49-6.27,2.82-6.27,7,0,3.52,0,7.03,0,10.55,0,3.06,1.95,5.44,4.97,5.98,2.16,.38,4.33,.67,6.51,.95,1.06,.13,1.78,.59,2.19,1.58,1.44,3.5,2.88,7,4.34,10.49,.43,1.03,.31,1.91-.38,2.78-1.26,1.6-2.49,3.22-3.68,4.87-2.07,2.87-1.84,5.82,.63,8.33,2.52,2.56,5.07,5.11,7.63,7.63,2.49,2.45,5.49,2.67,8.34,.61,1.65-1.19,3.27-2.43,4.87-3.69,.88-.69,1.72-.83,2.77-.38,3.44,1.47,6.91,2.88,10.38,4.31,.97,.4,1.54,1.04,1.67,2.12,.24,2.02,.56,4.03,.86,6.04,.5,3.27,2.39,5.35,5.62,5.52,4.06,.21,8.16,.2,12.22,0,3.09-.16,4.91-1.98,5.52-5.06,.4-1.99,.63-4.01,.88-6.03,.15-1.19,.52-2.11,1.74-2.6,3.47-1.39,6.94-2.82,10.38-4.29,1.05-.45,1.89-.31,2.77,.37,1.57,1.23,3.16,2.45,4.77,3.62,2.97,2.15,5.92,1.94,8.52-.62,2.54-2.49,5.05-5.01,7.54-7.54,2.48-2.52,2.69-5.56,.58-8.44-1.18-1.61-2.37-3.22-3.61-4.78-.66-.84-.86-1.66-.44-2.65,1.49-3.56,2.91-7.16,4.49-10.68,.29-.64,1.15-1.29,1.85-1.44,1.94-.41,3.94-.68,5.92-.77,3.45-.17,5.92-3.91,5.87-6.59-.07-3.64-.02-7.27-.02-10.91,0-2.72-2.33-5.57-5.02-6.03-2.12-.36-4.25-.68-6.4-.9-1.24-.12-1.95-.7-2.4-1.81-1.38-3.39-2.76-6.79-4.2-10.15-.51-1.18-.32-2.1,.47-3.07,1.26-1.55,2.51-3.12,3.58-4.79,.71-1.1,1.09-2.42,1.61-3.63Z"/><path d="M272.36,186.43c-.53,1.22-.91,2.53-1.61,3.63-1.07,1.68-2.33,3.25-3.58,4.79-.79,.97-.97,1.89-.47,3.07,1.44,3.37,2.83,6.76,4.2,10.15,.45,1.11,1.16,1.69,2.4,1.81,2.14,.21,4.27,.53,6.4,.9,2.68,.46,5.02,3.32,5.02,6.03,0,3.64-.05,7.28,.02,10.91,.05,2.68-2.41,6.42-5.87,6.59-1.98,.1-3.98,.37-5.92,.77-.7,.15-1.56,.79-1.85,1.44-1.58,3.52-3,7.12-4.49,10.68-.42,.99-.22,1.82,.44,2.65,1.24,1.56,2.43,3.17,3.61,4.78,2.1,2.88,1.9,5.92-.58,8.44-2.5,2.53-5.01,5.05-7.54,7.54-2.61,2.56-5.56,2.77-8.52,.62-1.62-1.17-3.2-2.39-4.77-3.62-.87-.69-1.71-.82-2.77-.37-3.44,1.47-6.9,2.9-10.38,4.29-1.22,.49-1.6,1.41-1.74,2.6-.25,2.02-.48,4.04-.88,6.03-.61,3.08-2.42,4.9-5.52,5.06-4.06,.21-8.16,.22-12.22,0-3.23-.17-5.13-2.25-5.62-5.52-.31-2.01-.62-4.02-.86-6.04-.13-1.09-.7-1.72-1.67-2.12-3.46-1.42-6.93-2.84-10.38-4.31-1.05-.45-1.89-.31-2.77,.38-1.6,1.26-3.22,2.49-4.87,3.69-2.85,2.06-5.85,1.84-8.34-.61-2.56-2.52-5.11-5.07-7.63-7.63-2.47-2.52-2.7-5.46-.63-8.33,1.19-1.65,2.43-3.27,3.68-4.87,.69-.88,.81-1.75,.38-2.78-1.47-3.49-2.9-6.99-4.34-10.49-.41-.99-1.13-1.45-2.19-1.58-2.17-.27-4.35-.57-6.51-.95-3.02-.53-4.97-2.91-4.97-5.98,0-3.52,0-7.03,0-10.55,0-4.17,2.1-6.51,6.27-7,1.86-.22,3.74-.37,5.56-.78,.69-.16,1.5-.84,1.79-1.5,1.54-3.45,2.93-6.97,4.39-10.46,.42-1.02,.31-1.91-.39-2.78-1.19-1.5-2.34-3.03-3.48-4.58-2.29-3.1-2.13-5.96,.55-8.7,2.51-2.57,5.05-5.12,7.63-7.63,2.5-2.42,5.41-2.59,8.24-.53,1.65,1.2,3.28,2.41,4.88,3.68,.84,.67,1.67,.83,2.66,.41,3.53-1.47,7.07-2.92,10.6-4.39,.87-.36,1.41-.97,1.53-1.97,.26-2.1,.6-4.18,.87-6.28,.46-3.67,3.73-5.54,6.36-5.45,3.59,.13,7.2,.18,10.79-.02,2.72-.15,5.84,2.07,6.33,5.24,.31,1.97,.56,3.95,.77,5.93,.14,1.31,.65,2.17,1.97,2.68,3.38,1.31,6.71,2.74,10.04,4.17,1.12,.48,2.03,.36,2.98-.41,1.58-1.28,3.21-2.51,4.87-3.68,2.85-2.02,5.73-1.77,8.22,.7,2.62,2.58,5.21,5.19,7.8,7.8,1.17,1.18,1.85,2.58,1.82,4.28,.1,.04,.2,.09,.3,.13Zm-86.62-9.41c-.53,.33-1.08,.56-1.48,.95-2.31,2.26-4.6,4.56-6.88,6.86-1.12,1.13-1.14,1.74-.18,3.01,1.23,1.62,2.45,3.26,3.68,4.88,1.54,2.02,1.78,4.18,.79,6.53-1.59,3.78-3.1,7.59-4.7,11.36-.88,2.07-2.37,3.48-4.68,3.83-2.13,.33-4.25,.65-6.39,.93-1.6,.21-2.09,.65-2.09,2.16,0,3.32,0,6.63,0,9.95,0,1.36,.48,1.84,1.83,2.01,1.9,.24,3.79,.55,5.69,.77,2.85,.33,4.76,1.82,5.83,4.48,1.44,3.58,2.91,7.15,4.42,10.71,1.06,2.51,.82,4.81-.84,6.97-1.19,1.55-2.37,3.11-3.55,4.68-.97,1.29-.94,1.85,.2,3.01,2.25,2.27,4.51,4.53,6.78,6.78,1.1,1.09,1.77,1.12,3.03,.18,1.66-1.24,3.33-2.48,4.98-3.75,1.88-1.44,3.93-1.71,6.09-.85,3.95,1.59,7.88,3.24,11.81,4.89,2.35,.99,3.56,2.83,3.88,5.32,.27,2.05,.61,4.1,.87,6.15,.14,1.13,.74,1.58,1.84,1.57,3.44-.02,6.87-.02,10.31,0,1.12,0,1.68-.5,1.83-1.6,.28-2.05,.66-4.09,.89-6.15,.31-2.76,1.81-4.5,4.32-5.52,3.61-1.47,7.21-2.99,10.82-4.47,2.44-1,4.74-.85,6.87,.82,1.51,1.18,3.07,2.3,4.58,3.47,1.33,1.03,2.06,1.02,3.22-.13,2.24-2.23,4.47-4.46,6.7-6.7,1.16-1.17,1.19-1.78,.19-3.11-1.29-1.72-2.62-3.43-3.87-5.18-1.43-1.99-1.5-4.05-.49-6.31,1.61-3.59,3.13-7.23,4.52-10.91,.89-2.37,2.41-3.79,4.89-4.18,2.2-.34,4.41-.65,6.63-.95,1.23-.17,1.78-.7,1.79-1.96,.02-3.36,.02-6.71,0-10.07,0-1.36-.49-1.87-1.83-2.06-1.93-.27-3.87-.54-5.81-.77-2.8-.33-4.69-1.79-5.75-4.41-1.46-3.62-2.97-7.22-4.46-10.82-1-2.4-.85-4.65,.78-6.76,1.22-1.58,2.41-3.18,3.62-4.77,.99-1.31,.95-1.94-.22-3.11-2.23-2.24-4.46-4.47-6.7-6.7-1.15-1.14-1.81-1.17-3.13-.18-1.59,1.2-3.19,2.4-4.78,3.61-2.06,1.58-4.26,1.79-6.64,.79-3.71-1.56-7.44-3.06-11.15-4.61-2.36-.98-3.78-2.69-4.1-5.29-.26-2.1-.63-4.18-.91-6.27-.14-1.02-.61-1.63-1.68-1.63-3.51,0-7.03,0-10.54,0-1.05,0-1.61,.54-1.75,1.57-.21,1.54-.51,3.07-.64,4.62-.27,3.35-1.47,5.95-4.88,7.23-3.5,1.31-6.93,2.81-10.38,4.27-2.57,1.09-4.95,.89-7.18-.86-1.54-1.21-3.11-2.38-4.68-3.54-.37-.27-.81-.45-1.34-.74Z"/><path d="M185.74,177.03c.53,.29,.97,.47,1.34,.74,1.57,1.16,3.15,2.33,4.68,3.54,2.23,1.75,4.6,1.95,7.18,.86,3.45-1.45,6.88-2.95,10.38-4.27,3.41-1.28,4.61-3.88,4.88-7.23,.13-1.55,.43-3.08,.64-4.62,.14-1.03,.7-1.57,1.75-1.57,3.51,0,7.03,0,10.54,0,1.07,0,1.55,.61,1.68,1.63,.28,2.09,.65,4.18,.91,6.27,.32,2.6,1.74,4.31,4.1,5.29,3.71,1.54,7.44,3.05,11.15,4.61,2.38,1,4.58,.79,6.64-.79,1.58-1.22,3.18-2.41,4.78-3.61,1.31-.99,1.98-.96,3.13,.18,2.24,2.23,4.47,4.46,6.7,6.7,1.16,1.17,1.2,1.81,.22,3.11-1.2,1.59-2.39,3.2-3.62,4.77-1.63,2.1-1.78,4.35-.78,6.76,1.5,3.6,3,7.21,4.46,10.82,1.06,2.62,2.94,4.08,5.75,4.41,1.94,.23,3.87,.5,5.81,.77,1.34,.18,1.82,.7,1.83,2.06,.02,3.36,.02,6.71,0,10.07,0,1.27-.55,1.79-1.79,1.96-2.21,.3-4.42,.61-6.63,.95-2.48,.38-4,1.81-4.89,4.18-1.39,3.68-2.91,7.32-4.52,10.91-1.01,2.26-.94,4.32,.49,6.31,1.26,1.75,2.58,3.45,3.87,5.18,1,1.33,.97,1.95-.19,3.11-2.23,2.24-4.46,4.47-6.7,6.7-1.16,1.15-1.89,1.16-3.22,.13-1.52-1.17-3.07-2.29-4.58-3.47-2.14-1.66-4.44-1.82-6.87-.82-3.61,1.48-7.2,3-10.82,4.47-2.5,1.02-4.01,2.76-4.32,5.52-.23,2.06-.62,4.1-.89,6.15-.15,1.1-.71,1.6-1.83,1.6-3.44-.02-6.87-.02-10.31,0-1.11,0-1.7-.45-1.84-1.57-.26-2.06-.61-4.1-.87-6.15-.32-2.5-1.53-4.34-3.88-5.32-3.93-1.65-7.86-3.31-11.81-4.89-2.15-.86-4.21-.59-6.09,.85-1.65,1.26-3.31,2.5-4.98,3.75-1.26,.94-1.93,.91-3.03-.18-2.27-2.25-4.53-4.51-6.78-6.78-1.15-1.16-1.18-1.72-.2-3.01,1.18-1.56,2.36-3.13,3.55-4.68,1.66-2.16,1.91-4.46,.84-6.97-1.51-3.55-2.98-7.12-4.42-10.71-1.07-2.66-2.97-4.15-5.83-4.48-1.9-.22-3.79-.53-5.69-.77-1.35-.17-1.83-.66-1.83-2.01-.01-3.32,0-6.63,0-9.95,0-1.52,.49-1.96,2.09-2.16,2.13-.27,4.26-.6,6.39-.93,2.31-.35,3.8-1.76,4.68-3.83,1.6-3.78,3.11-7.59,4.7-11.36,.99-2.35,.75-4.5-.79-6.53-1.23-1.62-2.45-3.25-3.68-4.88-.97-1.28-.95-1.88,.18-3.01,2.28-2.3,4.56-4.59,6.88-6.86,.4-.39,.95-.62,1.48-.95Zm.01,1.16c-.28,.22-.58,.41-.82,.65-2.24,2.23-4.45,4.48-6.71,6.68-.62,.61-.63,1.05-.1,1.72,1.29,1.63,2.5,3.32,3.75,4.98,1.68,2.25,1.9,4.7,.88,7.25-1.57,3.92-3.17,7.83-4.84,11.71-1.09,2.54-3.05,4.03-5.82,4.42-2.09,.29-4.18,.65-6.28,.91-.73,.09-.97,.41-.96,1.08,0,3.23,.01,6.47,0,9.7,0,.74,.29,1.06,1.03,1.14,1.51,.17,3,.48,4.5,.61,3.62,.3,6.41,1.71,7.81,5.31,1.38,3.56,2.88,7.08,4.36,10.61,1.21,2.89,1,5.59-.92,8.12-1.19,1.56-2.33,3.14-3.56,4.67-.51,.64-.45,1.06,.12,1.62,2.29,2.24,4.55,4.49,6.78,6.79,.6,.61,1,.52,1.6,.04,1.6-1.26,3.25-2.46,4.87-3.69,2.34-1.77,4.87-2.03,7.56-.92,3.76,1.55,7.52,3.08,11.27,4.66,2.62,1.1,4.28,2.99,4.67,5.88,.28,2.09,.64,4.18,.9,6.28,.09,.76,.4,1.01,1.14,1.01,3.2-.03,6.4-.05,9.59,.01,.91,.02,1.19-.39,1.28-1.17,.24-1.9,.51-3.79,.75-5.69,.41-3.14,2.09-5.24,5.03-6.43,3.58-1.44,7.15-2.94,10.71-4.44,2.89-1.21,5.6-.97,8.11,.97,1.49,1.15,3.01,2.25,4.47,3.43,.72,.59,1.21,.64,1.9-.08,2.16-2.24,4.37-4.45,6.61-6.61,.69-.67,.59-1.13,.05-1.82-1.31-1.66-2.58-3.35-3.82-5.08-1.71-2.39-1.81-4.85-.57-7.55,1.63-3.54,3.06-7.17,4.46-10.81,.95-2.47,2.53-4.15,5.16-4.65,2.35-.44,4.72-.75,7.09-1.08,.68-.09,.96-.36,.95-1.07-.03-3.28-.02-6.55,0-9.83,0-.71-.29-.96-.99-1.03-1.62-.18-3.23-.51-4.86-.66-3.41-.31-6.01-1.72-7.36-5.03-1.49-3.65-3.01-7.29-4.52-10.94-1.2-2.9-.92-5.59,1.06-8.09,1.19-1.5,2.28-3.09,3.48-4.58,.52-.64,.47-1.06-.1-1.62-2.26-2.21-4.5-4.43-6.69-6.7-.66-.68-1.13-.61-1.82-.06-1.63,1.29-3.31,2.52-4.98,3.75-2.22,1.64-4.66,1.83-7.15,.84-3.89-1.54-7.75-3.16-11.6-4.79-2.44-1.03-4.04-2.81-4.46-5.5-.33-2.09-.62-4.18-.91-6.27-.1-.71-.17-1.36-1.14-1.35-3.24,.02-6.47,0-9.71,0-.69,0-1.1,.23-1.18,1.02-.2,1.86-.53,3.71-.74,5.57-.41,3.5-2.32,5.68-5.6,6.9-3.32,1.24-6.58,2.63-9.83,4.07-3.1,1.37-5.95,1.18-8.65-.92-1.45-1.13-2.92-2.23-4.39-3.34-.25-.19-.52-.36-.87-.6Z"/><path d="M193.8,222.4c0-15.48,12.54-28,28.03-27.98,15.54,.02,28.15,12.6,28.07,28.1-.08,15.25-12.13,27.99-28.07,27.98-16.65-.01-28.19-13.62-28.03-28.1Zm54.99,.1c-.02-14.95-12.14-27.17-27.01-27.03-15.02,.14-26.95,11.98-26.92,27,.03,15.58,12.63,26.97,26.95,26.97,14.88,0,27-12.1,26.98-26.93Z"/><path d="M248.79,222.5c.02,14.84-12.1,26.93-26.98,26.93-14.32,0-26.92-11.39-26.95-26.97-.03-15.02,11.9-26.86,26.92-27,14.87-.14,26.99,12.08,27.01,27.03Zm-49.05-.14c-.02,12.31,9.78,22.2,22.02,22.24,12.13,.04,22.14-9.83,22.17-21.87,.03-12.48-9.79-22.45-22.09-22.43-12.22,.02-22.08,9.86-22.1,22.05Z"/><path d="M199.73,222.36c.02-12.19,9.88-22.03,22.1-22.05,12.3-.02,22.12,9.95,22.09,22.43-.03,12.04-10.03,21.91-22.17,21.87-12.24-.04-22.04-9.94-22.02-22.24Zm21.99,21.12c11.6,.08,21.12-9.21,21.15-20.89,.03-12.02-9.48-20.98-20.52-21.14-11.94-.18-21.55,9.16-21.6,20.82-.05,11.68,9.3,21.14,20.97,21.22Z"/></svg>