<?xml version="1.0" encoding="UTF-8"?><svg id="Calque_1" xmlns="http://www.w3.org/2000/svg" viewBox="0 0 827.44 285.97"><g><path d="M577.73,158.61c-1.58,2.68-2.88,5.58-4.83,7.97-2.26,2.77-5.69,3.74-9.18,4.22-4.51,.61-9.02,1.28-13.55,1.8-1.91,.22-2.77,1.07-3.49,2.91-3.11,7.94-6.4,15.82-9.8,23.64-.72,1.65-.88,2.79,.29,4.27,2.95,3.71,5.77,7.54,8.6,11.34,5.11,6.87,4.63,14.62-1.36,20.72-5.67,5.78-11.4,11.5-17.18,17.17-6.1,5.99-13.85,6.45-20.72,1.33-3.81-2.83-7.61-5.67-11.35-8.6-1.34-1.05-2.41-1.09-4.02-.39-8,3.47-16.04,6.83-24.16,10-1.82,.71-2.39,1.71-2.61,3.42-.67,5.07-1.26,10.16-2.18,15.18-1.34,7.35-7.3,12.26-14.76,12.32-8.47,.07-16.94,.07-25.41,0-7.46-.07-13.42-5-14.75-12.34-.91-5.03-1.54-10.11-2.16-15.18-.23-1.91-1.07-2.77-2.91-3.49-7.94-3.11-15.82-6.4-23.64-9.81-1.66-.72-2.81-.87-4.28,.3-3.72,2.94-7.54,5.77-11.34,8.6-6.87,5.11-14.65,4.62-20.72-1.36-5.77-5.68-11.49-11.41-17.17-17.18-5.99-6.08-6.47-13.85-1.35-20.71,2.84-3.8,5.67-7.61,8.6-11.35,1.05-1.34,1.1-2.41,.4-4.03-3.47-8-6.84-16.04-10.01-24.16-.71-1.82-1.71-2.39-3.41-2.62-5.07-.67-10.16-1.26-15.19-2.18-7.34-1.33-12.27-7.31-12.33-14.76-.07-8.19-.03-16.38-.01-24.57,.02-8.78,5.24-14.72,13.98-15.95,4.51-.63,9.02-1.28,13.55-1.8,1.9-.22,2.77-1.05,3.49-2.9,3.1-7.95,6.38-15.82,9.81-23.64,.79-1.81,.75-2.99-.45-4.5-2.95-3.71-5.77-7.53-8.59-11.35-4.9-6.62-4.43-14.42,1.31-20.28,5.8-5.91,11.66-11.77,17.57-17.57,5.86-5.75,13.65-6.22,20.28-1.33,3.89,2.87,7.78,5.76,11.57,8.76,1.47,1.16,2.62,1.02,4.28,.3,7.82-3.4,15.7-6.7,23.64-9.81,1.84-.72,2.69-1.58,2.91-3.49,.52-4.53,1.17-9.04,1.8-13.55,.97-6.94,4.66-11.59,11.51-13.54,.25-.07,.45-.3,.67-.45,10.43,0,20.85,0,31.28,0,6.82,2.26,11.28,6.57,12.2,13.99,.56,4.52,1.24,9.03,1.8,13.55,.21,1.71,.81,2.69,2.63,3.4,8.12,3.17,16.16,6.54,24.16,10,1.62,.7,2.69,.63,4.02-.41,3.74-2.92,7.54-5.76,11.35-8.59,6.87-5.12,14.61-4.65,20.72,1.35,5.77,5.68,11.5,11.4,17.18,17.17,5.99,6.1,6.47,13.84,1.35,20.72-2.83,3.81-5.64,7.63-8.6,11.34-1.18,1.48-1,2.63-.28,4.27,3.39,7.83,6.69,15.7,9.79,23.64,.72,1.84,1.59,2.69,3.49,2.9,4.53,.52,9.03,1.19,13.55,1.8,3.6,.48,7.07,1.54,9.38,4.41,1.87,2.33,3.1,5.17,4.62,7.78v31.27Zm-143.08,113.95c3.82,0,7.63-.08,11.45,.03,2.05,.06,3.01-.57,3.26-2.75,.55-4.89,1.34-9.76,2.07-14.63,.98-6.55,4.83-10.49,10.97-12.79,7.64-2.86,15.25-5.85,22.61-9.32,6.38-3,12.13-2.9,17.77,1.36,3.71,2.8,7.5,5.51,11.11,8.44,1.88,1.52,3.11,1.26,4.72-.39,5.18-5.34,10.46-10.6,15.8-15.79,1.6-1.55,1.7-2.76,.32-4.5-3.17-4.01-6.28-8.08-9.22-12.27-3.38-4.81-3.93-10.11-1.18-15.3,4.23-8,7.65-16.28,10.33-24.93,1.78-5.73,6.05-9.03,11.96-9.99,5.05-.83,10.11-1.52,15.19-2.15,1.83-.23,2.59-.98,2.58-2.85-.06-7.82-.06-15.63,0-23.45,.01-1.86-.69-2.65-2.54-2.88-4.98-.62-9.95-1.35-14.91-2.11-6.41-.98-10.36-4.74-12.66-10.76-2.97-7.79-6.08-15.54-9.55-23.12-2.83-6.19-2.69-11.82,1.4-17.29,2.84-3.8,5.65-7.63,8.6-11.34,1.37-1.72,1.33-2.94-.28-4.51-5.41-5.25-10.74-10.58-15.99-15.99-1.59-1.64-2.81-1.57-4.51-.22-3.94,3.11-7.94,6.16-12.04,9.06-4.98,3.53-10.23,3.69-15.83,1.23-8.06-3.54-16.21-6.88-24.4-10.1-5.7-2.24-9.2-6.15-10.17-12.19-.8-4.95-1.55-9.92-2.12-14.91-.25-2.16-1.16-2.81-3.23-2.78-7.54,.09-15.08,.09-22.61,0-2.16-.03-3.18,.58-3.42,2.9-.5,4.71-1.33,9.39-1.98,14.08-.96,6.91-4.92,10.99-11.44,13.33-7.41,2.66-14.77,5.56-21.84,9.01-6.79,3.31-12.8,3.06-18.72-1.58-3.51-2.75-7.18-5.31-10.66-8.11-1.77-1.43-2.97-1.18-4.49,.38-5.26,5.4-10.6,10.73-15.99,15.99-1.5,1.46-1.61,2.61-.3,4.28,3.17,4.02,6.27,8.09,9.22,12.27,3.52,4.99,3.61,10.25,1.15,15.84-3.51,7.97-6.82,16.03-9.99,24.15-2.27,5.8-6.18,9.39-12.35,10.37-4.96,.79-9.93,1.54-14.91,2.12-1.99,.23-2.73,1.02-2.71,3.01,.07,7.72,.07,15.45,0,23.17-.02,1.98,.7,2.78,2.7,3.02,4.89,.57,9.76,1.36,14.64,2.08,6.68,.99,10.61,4.93,12.92,11.18,2.79,7.56,5.78,15.07,9.23,22.35,3.08,6.49,2.88,12.31-1.46,18.01-2.82,3.7-5.54,7.47-8.44,11.11-1.31,1.65-1.22,2.8,.28,4.28,5.46,5.33,10.86,10.73,16.19,16.19,1.51,1.55,2.68,1.45,4.29,.19,3.95-3.1,7.96-6.13,12.03-9.07,4.97-3.59,10.22-3.79,15.82-1.35,8.08,3.5,16.2,6.9,24.4,10.11,5.81,2.28,9.36,6.22,10.32,12.38,.78,4.96,1.53,9.93,2.12,14.91,.24,2.03,1.12,2.69,3.07,2.64,3.81-.1,7.63-.03,11.45-.03Z"/><path d="M434.66,205c-34.3-.04-62.05-27.92-61.95-62.25,.09-34.17,27.9-61.84,62.12-61.81,34.32,.04,62.05,27.9,61.96,62.25-.09,34.17-27.91,61.85-62.12,61.81Zm48.75-61.77c.11-26.94-21.49-48.79-48.34-48.91-26.98-.12-48.84,21.41-49,48.25-.16,27.07,21.49,48.99,48.47,49.06,26.94,.08,48.75-21.53,48.86-48.4Z"/></g><line y1="140.48" x2="305.1" y2="140.48" style="fill:none; stroke:currentColor; stroke-miterlimit:10;"/><path d="M299.1,140.48c-36.99,3.83-80.5,259.67-140,4.28-47.97-205.93-85.17-4.28-159.1-4.28" style="fill:none; stroke:currentColor; stroke-miterlimit:10; stroke-width:3px;"/><path d="M299.1,140.48c-36.99,3.83-72.21,208.39-140,4.28C104.68-19.13,73.93,140.48,0,140.48" style="fill:none; stroke:currentColor; stroke-miterlimit:10; stroke-width:3px;"/><path d="M299.1,140.48c-36.99,3.83-66,162.43-140,4.28-58.62-125.28-85.17-4.28-159.1-4.28" style="fill:none; stroke:currentColor; stroke-miterlimit:10; stroke-width:3px;"/><path d="M577.73,140.48c30.88,3.83,55.1,162.43,116.88,4.28,48.94-125.28,71.11-4.28,132.83-4.28" style="fill:none; stroke:currentColor; stroke-miterlimit:10; stroke-width:3px;"/><path d="M299.1,140.48c-36.99,3.83-65.11,110.72-140,4.28-61.47-87.37-85.17-4.28-159.1-4.28" style="fill:none; stroke:currentColor; stroke-miterlimit:10; stroke-width:3px;"/><path d="M299.1,140.48c-36.99,3.83-63.88,51.33-140,4.28-63.54-39.28-85.17-4.28-159.1-4.28" style="fill:none; stroke:currentColor; stroke-miterlimit:10; stroke-width:3px;"/></svg>